<svg viewBox="0 0 25 25" fill="none" xmlns="http://www.w3.org/2000/svg">
<path d="M12.4092 3.11523C12.7489 2.93622 13.1682 2.96543 13.4814 3.2041L20.9619 8.9043C21.4584 9.28255 21.75 9.87099 21.75 10.4951V20C21.75 21.212 20.6846 22 19.625 22H6.125C5.06538 22 4 21.212 4 20V10.4951C4.00005 9.87099 4.29163 9.28255 4.78809 8.9043L12.2686 3.2041L12.4092 3.11523ZM6 10.4951V19.9629C6.01957 19.9778 6.06049 20 6.125 20H19.625C19.6895 20 19.7304 19.9778 19.75 19.9629V10.4951L12.875 5.25781L6 10.4951Z" fill="currentColor"/>
</svg>
