<svg viewBox="0 0 18 16" fill="none" xmlns="http://www.w3.org/2000/svg">
<path d="M3.66179 4.4317C3.00792 1.59405 6.42128 -0.376713 8.55179 1.60846C8.91776 1.94953 9.48616 1.94982 9.85211 1.60873C11.9827 -0.37659 15.3967 1.59464 14.7424 4.43251C14.6302 4.91983 14.9137 5.41087 15.3918 5.55733C18.1767 6.40962 18.1768 10.3519 15.3922 11.2044C14.9138 11.3507 14.6299 11.8431 14.7422 12.3306C15.3962 15.1683 11.9828 17.139 9.85222 15.1538C9.48631 14.8128 8.91788 14.8126 8.5519 15.1536C6.42127 17.1392 3.00712 15.1678 3.66159 12.3298C3.77372 11.8426 3.4902 11.3515 3.01218 11.205C0.227136 10.3527 0.226963 6.41033 3.01187 5.55794C3.49013 5.41148 3.7742 4.91912 3.66179 4.4317ZM7.18883 3.07195C6.50131 2.43115 5.39959 3.06729 5.6107 3.98308C5.95887 5.4936 5.07921 7.0161 3.59695 7.46978C2.69847 7.74487 2.69856 9.01686 3.59695 9.29204C5.07929 9.74571 5.95888 11.2692 5.61062 12.7798C5.39974 13.6955 6.50128 14.3315 7.18875 13.691C8.32278 12.6341 10.0811 12.6336 11.2152 13.6903C11.9027 14.3311 13.0045 13.695 12.7933 12.7792C12.4452 11.2687 13.3247 9.74612 14.8071 9.29252C15.7053 9.01732 15.7053 7.7455 14.8071 7.47026C13.3246 7.01662 12.445 5.49315 12.7934 3.98247C13.0041 3.06701 11.9027 2.43106 11.2153 3.07134C10.0813 4.1283 8.32293 4.12875 7.18883 3.07195ZM7.70201 5.78307C9.13685 4.9548 10.9717 5.44635 11.8001 6.88115C12.6285 8.31596 12.1367 10.1507 10.702 10.9792C9.26713 11.8077 7.43236 11.316 6.60393 9.88115C5.77552 8.44628 6.26714 6.6115 7.70201 5.78307ZM8.70201 7.51512C8.22372 7.79126 8.05986 8.40286 8.33598 8.88115C8.61213 9.35944 9.22372 9.52332 9.70201 9.24718C10.1802 8.97098 10.3441 8.35938 10.068 7.88115C9.79192 7.40294 9.18027 7.23914 8.70201 7.51512Z" fill="currentColor"/>
</svg>
